<svg width="54" height="54" viewBox="0 0 54 54" fill="none" xmlns="http://www.w3.org/2000/svg">
<path d="M26.6826 0.333328C15.5465 0.333328 12.2896 0.344816 11.6566 0.397334C9.37123 0.587298 7.94916 0.947124 6.3999 1.71847C5.20596 2.31134 4.26434 2.99858 3.33503 3.96194C1.64258 5.71881 0.61685 7.88022 0.245536 10.4495C0.0650084 11.6968 0.0124911 11.9511 0.00182352 18.3221C-0.0022794 20.4458 0.00182352 23.2407 0.00182352 26.9895C0.00182352 38.1166 0.0141323 41.3702 0.0674701 42.0021C0.252101 44.2259 0.600849 45.625 1.33937 47.1554C2.75077 50.0848 5.44639 52.284 8.62204 53.1046C9.72162 53.3877 10.9361 53.5436 12.4952 53.6174C13.1558 53.6462 19.8886 53.6667 26.6256 53.6667C33.3626 53.6667 40.0996 53.6585 40.7437 53.6256C42.549 53.5407 43.5973 53.4 44.7564 53.1005C46.331 52.6967 47.7985 51.954 49.0564 50.9243C50.3142 49.8946 51.3322 48.6028 52.039 47.1389C52.7632 45.6455 53.1304 44.193 53.2966 42.0854C53.3327 41.6259 53.3479 34.2993 53.3479 26.9826C53.3479 19.6646 53.3315 12.3516 53.2954 11.8921C53.1271 9.75033 52.7599 8.31021 52.0124 6.78803C51.399 5.54198 50.7179 4.61143 49.7291 3.65997C47.9649 1.97449 45.8067 0.948765 43.2346 0.577862C41.9886 0.397744 41.7403 0.344406 35.3644 0.333328H26.6826Z" fill="url(#paint0_radial)"/>
<path d="M26.6826 0.333328C15.5465 0.333328 12.2896 0.344816 11.6566 0.397334C9.37123 0.587298 7.94916 0.947124 6.3999 1.71847C5.20596 2.31134 4.26434 2.99858 3.33503 3.96194C1.64258 5.71881 0.61685 7.88022 0.245536 10.4495C0.0650084 11.6968 0.0124911 11.9511 0.00182352 18.3221C-0.0022794 20.4458 0.00182352 23.2407 0.00182352 26.9895C0.00182352 38.1166 0.0141323 41.3702 0.0674701 42.0021C0.252101 44.2259 0.600849 45.625 1.33937 47.1554C2.75077 50.0848 5.44639 52.284 8.62204 53.1046C9.72162 53.3877 10.9361 53.5436 12.4952 53.6174C13.1558 53.6462 19.8886 53.6667 26.6256 53.6667C33.3626 53.6667 40.0996 53.6585 40.7437 53.6256C42.549 53.5407 43.5973 53.4 44.7564 53.1005C46.331 52.6967 47.7985 51.954 49.0564 50.9243C50.3142 49.8946 51.3322 48.6028 52.039 47.1389C52.7632 45.6455 53.1304 44.193 53.2966 42.0854C53.3327 41.6259 53.3479 34.2993 53.3479 26.9826C53.3479 19.6646 53.3315 12.3516 53.2954 11.8921C53.1271 9.75033 52.7599 8.31021 52.0124 6.78803C51.399 5.54198 50.7179 4.61143 49.7291 3.65997C47.9649 1.97449 45.8067 0.948765 43.2346 0.577862C41.9886 0.397744 41.7403 0.344406 35.3644 0.333328H26.6826Z" fill="url(#paint1_radial)"/>
<path d="M26.6703 7.30827C21.3217 7.30827 20.6505 7.33166 18.5498 7.42726C16.4532 7.52327 15.0221 7.85519 13.7699 8.34221C12.4746 8.84522 11.3759 9.5181 10.2812 10.6132C9.18575 11.7078 8.51287 12.8066 8.00821 14.1015C7.51996 15.3541 7.18763 16.7856 7.09326 18.8814C6.99972 20.982 6.9751 21.6537 6.9751 27.0023C6.9751 32.3508 6.99889 33.02 7.09408 35.1207C7.1905 37.2173 7.52243 38.6484 8.00903 39.9006C8.51246 41.1959 9.18534 42.2946 10.2804 43.3893C11.3746 44.4848 12.4734 45.1593 13.7679 45.6623C15.0209 46.1493 16.4524 46.4812 18.5486 46.5772C20.6493 46.6728 21.3201 46.6962 26.6683 46.6962C32.0172 46.6962 32.6864 46.6728 34.7871 46.5772C36.8837 46.4812 38.3164 46.1493 39.5694 45.6623C40.8643 45.1593 41.9614 44.4848 43.0557 43.3893C44.1512 42.2946 44.824 41.1959 45.3287 39.901C45.8128 38.6484 46.1452 37.2169 46.2436 35.1211C46.338 33.0204 46.3626 32.3508 46.3626 27.0023C46.3626 21.6537 46.338 20.9825 46.2436 18.8818C46.1452 16.7852 45.8128 15.3541 45.3287 14.1019C44.824 12.8066 44.1512 11.7078 43.0557 10.6132C41.9602 9.51769 40.8647 8.84481 39.5682 8.34221C38.3127 7.85519 36.8808 7.52327 34.7842 7.42726C32.6835 7.33166 32.0148 7.30827 26.6646 7.30827H26.6703ZM24.9036 10.8573C25.4279 10.8565 26.013 10.8573 26.6703 10.8573C31.9286 10.8573 32.5518 10.8762 34.6283 10.9705C36.5485 11.0583 37.5906 11.3792 38.2848 11.6487C39.2039 12.0057 39.8591 12.4324 40.548 13.1217C41.2373 13.811 41.664 14.4674 42.0218 15.3865C42.2913 16.0799 42.6126 17.122 42.7 19.0422C42.7943 21.1183 42.8148 21.7419 42.8148 26.9977C42.8148 32.2536 42.7943 32.8772 42.7 34.9533C42.6122 36.8734 42.2913 37.9156 42.0218 38.609C41.6648 39.528 41.2373 40.1824 40.548 40.8713C39.8587 41.5606 39.2043 41.9873 38.2848 42.3443C37.5914 42.6151 36.5485 42.9351 34.6283 43.0229C32.5522 43.1173 31.9286 43.1378 26.6703 43.1378C21.4116 43.1378 20.7884 43.1173 18.7123 43.0229C16.7921 42.9343 15.75 42.6134 15.0554 42.3439C14.1363 41.9869 13.4799 41.5602 12.7906 40.8709C12.1013 40.1816 11.6746 39.5268 11.3168 38.6073C11.0472 37.9139 10.726 36.8718 10.6386 34.9516C10.5442 32.8756 10.5253 32.2519 10.5253 26.9928C10.5253 21.7337 10.5442 21.1133 10.6386 19.0373C10.7264 17.1171 11.0472 16.075 11.3168 15.3808C11.6738 14.4617 12.1013 13.8052 12.7906 13.1159C13.4799 12.4267 14.1363 12 15.0554 11.6422C15.7496 11.3714 16.7921 11.0514 18.7123 10.9631C20.5291 10.8811 21.2331 10.8565 24.9036 10.8524V10.8573ZM37.1828 14.1273C36.7153 14.1273 36.2584 14.2659 35.8697 14.5257C35.4811 14.7854 35.1782 15.1545 34.9993 15.5864C34.8205 16.0183 34.7737 16.4935 34.865 16.9519C34.9562 17.4104 35.1814 17.8315 35.512 18.162C35.8426 18.4924 36.2637 18.7175 36.7222 18.8086C37.1807 18.8997 37.6559 18.8527 38.0877 18.6737C38.5196 18.4947 38.8886 18.1917 39.1482 17.803C39.4078 17.4142 39.5462 16.9572 39.5461 16.4898C39.5461 15.185 38.4875 14.1265 37.1828 14.1265V14.1273ZM26.6703 16.8886C21.085 16.8886 16.5566 21.417 16.5566 27.0023C16.5566 32.5875 21.085 37.1139 26.6703 37.1139C32.2556 37.1139 36.7827 32.5875 36.7827 27.0023C36.7827 21.417 32.2552 16.8886 26.6699 16.8886H26.6703ZM26.6703 20.4376C30.2956 20.4376 33.235 23.3765 33.235 27.0023C33.235 30.6276 30.2956 33.5669 26.6703 33.5669C23.0446 33.5669 20.1056 30.6276 20.1056 27.0023C20.1056 23.3765 23.0446 20.4376 26.6703 20.4376V20.4376Z" fill="white"/>
<defs>
<radialGradient id="paint0_radial" cx="0" cy="0" r="1" gradientUnits="userSpaceOnUse" gradientTransform="translate(14.1706 57.7745) rotate(-90) scale(52.8573 49.1748)">
<stop stop-color="#FFDD55"/>
<stop offset="0.1" stop-color="#FFDD55"/>
<stop offset="0.5" stop-color="#FF543E"/>
<stop offset="1" stop-color="#C837AB"/>
</radialGradient>
<radialGradient id="paint1_radial" cx="0" cy="0" r="1" gradientUnits="userSpaceOnUse" gradientTransform="translate(-8.93605 4.17537) rotate(78.6776) scale(23.6277 97.4188)">
<stop stop-color="#3771C8"/>
<stop offset="0.128" stop-color="#3771C8"/>
<stop offset="1" stop-color="#6600FF" stop-opacity="0"/>
</radialGradient>
</defs>
</svg>
