<?xml version="1.0" encoding="UTF-8"?>
<!DOCTYPE svg PUBLIC "-//W3C//DTD SVG 1.1//EN" "http://www.w3.org/Graphics/SVG/1.1/DTD/svg11.dtd">
<!-- Creator: CorelDRAW 2019 (64-Bit) -->
<svg xmlns="http://www.w3.org/2000/svg" xml:space="preserve" width="2160px" height="2160px" version="1.1" style="shape-rendering:geometricPrecision; text-rendering:geometricPrecision; image-rendering:optimizeQuality; fill-rule:evenodd; clip-rule:evenodd"
viewBox="0 0 2160 2160"
 xmlns:xlink="http://www.w3.org/1999/xlink"
 xmlns:xodm="http://www.corel.com/coreldraw/odm/2003">
 <defs>
  <style type="text/css">
   <![CDATA[
    .fil0 {fill:#00B900;fill-rule:nonzero}
    .fil1 {fill:white;fill-rule:nonzero}
   ]]>
  </style>
 </defs>
 <g id="Layer_x0020_1">
  <metadata id="CorelCorpID_0Corel-Layer"/>
  <path class="fil0" d="M1692 2160l-1224 0c-258.47,0 -468,-209.53 -468,-468l0 -1224c0,-258.47 209.53,-468 468,-468l1224 0c258.47,0 468,209.53 468,468l0 1224c0,258.47 -209.53,468 -468,468z"/>
  <path class="fil1" d="M1862.93 985.02c0,-351.9 -352.79,-638.2 -786.44,-638.2 -433.61,0 -786.43,286.3 -786.43,638.2 0,315.48 279.78,579.69 657.71,629.65 25.61,5.52 60.47,16.88 69.28,38.78 7.94,19.87 5.19,51.02 2.55,71.11 0,0 -9.23,55.49 -11.23,67.32 -3.42,19.88 -15.8,77.76 68.12,42.4 83.94,-35.37 452.91,-266.69 617.9,-456.6l-0.03 0c113.97,-124.99 168.57,-251.82 168.57,-392.66z"/>
  <path class="fil0" d="M916.7 814.97l-55.16 0c-8.46,0 -15.32,6.85 -15.32,15.29l0 342.67c0,8.44 6.86,15.28 15.32,15.28l55.16 0c8.46,0 15.33,-6.84 15.33,-15.28l0 -342.67c0,-8.44 -6.87,-15.29 -15.33,-15.29z"/>
  <path class="fil0" d="M1296.39 814.97l-55.16 0c-8.46,0 -15.31,6.85 -15.31,15.29l0 203.59 -157.04 -212.08c-0.36,-0.54 -0.77,-1.05 -1.19,-1.55 -0.04,-0.03 -0.07,-0.07 -0.1,-0.1 -0.3,-0.33 -0.61,-0.64 -0.92,-0.94 -0.1,-0.09 -0.19,-0.18 -0.28,-0.26 -0.26,-0.24 -0.54,-0.47 -0.83,-0.68 -0.12,-0.12 -0.26,-0.22 -0.39,-0.31 -0.26,-0.19 -0.52,-0.38 -0.79,-0.55 -0.16,-0.1 -0.3,-0.19 -0.46,-0.28 -0.28,-0.15 -0.55,-0.32 -0.83,-0.46 -0.16,-0.07 -0.32,-0.15 -0.48,-0.23 -0.29,-0.12 -0.57,-0.26 -0.88,-0.37 -0.18,-0.06 -0.32,-0.13 -0.5,-0.18 -0.29,-0.11 -0.59,-0.2 -0.9,-0.3 -0.18,-0.04 -0.35,-0.08 -0.54,-0.13 -0.3,-0.08 -0.58,-0.14 -0.88,-0.2 -0.21,-0.04 -0.43,-0.06 -0.64,-0.09 -0.27,-0.05 -0.54,-0.07 -0.81,-0.1 -0.26,-0.02 -0.52,-0.03 -0.79,-0.04 -0.19,0 -0.35,-0.03 -0.54,-0.03l-55.16 0c-8.45,0 -15.31,6.85 -15.31,15.29l0 342.67c0,8.44 6.86,15.28 15.31,15.28l55.16 0c8.46,0 15.33,-6.84 15.33,-15.28l0 -203.51 157.22 212.34c1.08,1.52 2.43,2.78 3.89,3.77 0.05,0.04 0.11,0.07 0.16,0.12 0.31,0.2 0.62,0.4 0.94,0.58 0.16,0.08 0.29,0.16 0.44,0.23 0.24,0.13 0.48,0.25 0.73,0.36 0.25,0.1 0.49,0.21 0.75,0.31 0.16,0.07 0.29,0.13 0.46,0.18 0.36,0.12 0.69,0.23 1.04,0.33 0.07,0.01 0.15,0.04 0.22,0.05 1.24,0.34 2.56,0.52 3.92,0.52l55.16 0c8.47,0 15.32,-6.84 15.32,-15.28l0 -342.67c0,-8.44 -6.85,-15.29 -15.32,-15.29z"/>
  <path class="fil0" d="M783.73 1102.41l-149.89 0 0 -272.14c0,-8.45 -6.85,-15.3 -15.3,-15.3l-55.17 0c-8.46,0 -15.32,6.85 -15.32,15.3l0 342.63 0 0.02c0,4.12 1.63,7.84 4.28,10.58 0.06,0.08 0.12,0.16 0.21,0.24 0.08,0.07 0.15,0.13 0.23,0.21 2.75,2.64 6.47,4.27 10.57,4.27l0.03 0 220.36 0c8.45,0 15.3,-6.87 15.3,-15.32l0 -55.17c0,-8.45 -6.85,-15.32 -15.3,-15.32z"/>
  <path class="fil0" d="M1601.02 900.77c8.46,0 15.3,-6.85 15.3,-15.31l0 -55.16c0,-8.47 -6.84,-15.33 -15.3,-15.33l-220.36 0 -0.03 0c-4.13,0 -7.86,1.65 -10.62,4.32 -0.05,0.06 -0.13,0.11 -0.17,0.16 -0.09,0.1 -0.18,0.19 -0.25,0.27 -2.62,2.75 -4.25,6.46 -4.25,10.55l0 0.03 0 342.6 0 0.03c0,4.11 1.64,7.83 4.28,10.58 0.06,0.07 0.14,0.15 0.22,0.23 0.06,0.06 0.14,0.14 0.22,0.2 2.74,2.64 6.46,4.28 10.57,4.28l0.03 0 220.36 0c8.46,0 15.3,-6.86 15.3,-15.32l0 -55.17c0,-8.45 -6.84,-15.32 -15.3,-15.32l-149.87 0 0 -57.91 149.87 0c8.46,0 15.3,-6.86 15.3,-15.33l0 -55.15c0,-8.47 -6.84,-15.33 -15.3,-15.33l-149.87 0 0 -57.92 149.87 0z"/>
 </g>
</svg>
