<svg width="57" height="57" viewBox="0 0 57 57" fill="none" xmlns="http://www.w3.org/2000/svg">
<path d="M49.1011 1.50648H7.54268C4.1212 1.50648 1.34787 4.27981 1.34787 7.70129V49.2597C1.34787 52.6812 4.1212 55.4545 7.54268 55.4545H49.1011C52.5226 55.4545 55.2959 52.6812 55.2959 49.2597V7.70129C55.2959 4.27981 52.5226 1.50648 49.1011 1.50648Z" fill="#010101" stroke="#DDDDDD" stroke-width="2"/>
<path fill-rule="evenodd" clip-rule="evenodd" d="M34.9671 50.2987C36.5478 50.2987 37.8292 49.0276 37.8292 47.4598C37.8292 45.892 36.5478 44.6208 34.9671 44.6208H34.5359C36.1166 44.6208 37.3981 45.892 37.3981 47.4598C37.3981 49.0276 36.1166 50.2987 34.5359 50.2987H34.9671Z" fill="#EE1D51"/>
<path fill-rule="evenodd" clip-rule="evenodd" d="M34.4969 44.6208H34.0657C32.485 44.6208 31.2034 45.892 31.2034 47.4598C31.2034 49.0276 32.485 50.2987 34.0657 50.2987H34.4969C32.916 50.2987 31.6345 49.0276 31.6345 47.4598C31.6345 45.892 32.916 44.6208 34.4969 44.6208V44.6208Z" fill="#66C8CF"/>
<path d="M34.5164 48.8402C35.2852 48.8402 35.9084 48.2222 35.9084 47.4598C35.9084 46.6975 35.2852 46.0795 34.5164 46.0795C33.7476 46.0795 33.1244 46.6975 33.1244 47.4598C33.1244 48.2222 33.7476 48.8402 34.5164 48.8402Z" fill="#010101"/>
<path fill-rule="evenodd" clip-rule="evenodd" d="M12.7375 43.3377V44.7766H14.4231V50.2598H16.1093V44.8155H17.4814L17.9518 43.3377H12.7375ZM26.538 43.3377V44.7766H28.2236V50.2598H29.9098V44.8155H31.2819L31.7523 43.3377H26.538ZM18.2658 44.1543C18.2658 43.7034 18.6338 43.3377 19.0884 43.3377C19.5435 43.3377 19.9119 43.7034 19.9119 44.1543C19.9119 44.6052 19.5437 44.9709 19.0884 44.9709C18.6338 44.9707 18.2658 44.6052 18.2658 44.1543ZM18.2658 45.5544H19.9119V50.2598H18.2658V45.5544ZM20.6178 43.3377V50.2598H22.2645V48.4712L22.7743 48.004L24.3815 50.2987H26.1457L23.8323 46.9543L25.9103 44.9318H23.9109L22.2645 46.5651V43.3377H20.6178ZM38.3778 43.3377V50.2598H40.0248V48.4712L40.5343 48.004L42.1419 50.2987H43.9063L41.593 46.9543L43.6709 44.9318H41.6715L40.0248 46.5651V43.3377H38.3778Z" fill="white"/>
<path fill-rule="evenodd" clip-rule="evenodd" d="M35.8371 19.3763C38.1112 21.001 40.8973 21.9571 43.9061 21.9571V16.1699C43.3366 16.1701 42.7687 16.1107 42.2116 15.9926V20.548C39.2029 20.548 36.4173 19.592 34.1426 17.9673V29.7771C34.1426 35.6851 29.3509 40.4741 23.4402 40.4741C21.2349 40.4741 19.1851 39.8077 17.4822 38.6648C19.4257 40.6509 22.1359 41.8831 25.1344 41.8831C31.0454 41.8831 35.8373 37.0941 35.8373 31.186V19.3763H35.8371ZM37.9275 13.5377C36.7653 12.2688 36.0023 10.6287 35.8371 8.81546V8.07115H34.2313C34.6355 10.3756 36.0142 12.3444 37.9275 13.5377V13.5377ZM21.2206 34.1314C20.5713 33.2805 20.2204 32.2394 20.2219 31.1691C20.2219 28.467 22.4137 26.2762 25.1177 26.2762C25.6216 26.2759 26.1225 26.3532 26.6028 26.5054V20.589C26.0416 20.5121 25.4752 20.4795 24.9089 20.4915V25.0966C24.4284 24.9444 23.9273 24.8671 23.4232 24.8674C20.7192 24.8674 18.5276 27.0582 18.5276 29.7605C18.5276 31.6711 19.6231 33.3256 21.2206 34.1314V34.1314Z" fill="#EE1D52"/>
<path fill-rule="evenodd" clip-rule="evenodd" d="M34.1426 17.9673C36.4173 19.592 39.2029 20.548 42.2116 20.548V15.9926C40.5322 15.6352 39.0454 14.7579 37.9275 13.5377C36.0142 12.3444 34.6355 10.3756 34.2313 8.07115H30.0133V31.1857C30.0038 33.8804 27.8157 36.0622 25.1175 36.0622C23.5275 36.0622 22.1149 35.3048 21.2204 34.1314C19.6229 33.3256 18.5274 31.6712 18.5274 29.7605C18.5274 27.0582 20.719 24.8674 23.423 24.8674C23.941 24.8674 24.4403 24.948 24.9087 25.0966V20.4915C19.1019 20.6114 14.4318 25.3536 14.4318 31.186C14.4318 34.0973 15.5948 36.7367 17.4822 38.665C19.1851 39.8079 21.2349 40.4743 23.4402 40.4743C29.3509 40.4743 34.1426 35.6851 34.1426 29.7773V17.9673Z" fill="white"/>
<path fill-rule="evenodd" clip-rule="evenodd" d="M42.2115 15.9926V14.7608C40.697 14.7631 39.2124 14.3392 37.9275 13.5375C39.0649 14.7822 40.5627 15.6405 42.2115 15.9926V15.9926ZM34.2313 8.07115C34.1927 7.85095 34.1631 7.62926 34.1426 7.40663V6.66232H28.3186V29.7771C28.3092 32.4716 26.1214 34.6534 23.423 34.6534C22.6307 34.6534 21.8828 34.4656 21.2204 34.1314C22.1149 35.3048 23.5275 36.0622 25.1175 36.0622C27.8155 36.0622 30.0038 33.8804 30.0133 31.1858V8.07115H34.2313ZM24.9089 20.4915V19.1801C24.4222 19.1136 23.9316 19.0804 23.4404 19.0806C17.5292 19.0806 12.7375 23.8698 12.7375 29.7771C12.7375 33.4808 14.6207 36.7448 17.4824 38.6648C15.595 36.7365 14.432 34.0971 14.432 31.1858C14.432 25.3537 19.1019 20.6114 24.9089 20.4915V20.4915Z" fill="#69C9D0"/>
<path fill-rule="evenodd" clip-rule="evenodd" d="M34.5357 50.2987C36.1164 50.2987 37.3981 49.0276 37.3981 47.4598C37.3981 45.892 36.1164 44.6208 34.5357 44.6208H34.4967C32.916 44.6208 31.6345 45.892 31.6345 47.4598C31.6345 49.0276 32.916 50.2987 34.4967 50.2987H34.5357ZM33.1244 47.4598C33.1244 46.6972 33.7478 46.0795 34.5166 46.0795C35.2848 46.0795 35.9082 46.6972 35.9082 47.4598C35.9082 48.2224 35.2848 48.8406 34.5166 48.8406C33.7478 48.8404 33.1244 48.2224 33.1244 47.4598Z" fill="white"/>
</svg>
